<?xml version="1.0" standalone="no"?><svg xmlns="http://www.w3.org/2000/svg" viewBox="0 0 1440 320"><path fill="#0099ff" fill-opacity="1" d="M0,192L20,176C40,160,80,128,120,117.3C160,107,200,117,240,112C280,107,320,85,360,80C400,75,440,85,480,117.3C520,149,560,203,600,202.7C640,203,680,149,720,138.7C760,128,800,160,840,176C880,192,920,192,960,170.7C1000,149,1040,107,1080,96C1120,85,1160,107,1200,144C1240,181,1280,235,1320,256C1360,277,1400,267,1420,261.3L1440,256L1440,0L1420,0C1400,0,1360,0,1320,0C1280,0,1240,0,1200,0C1160,0,1120,0,1080,0C1040,0,1000,0,960,0C920,0,880,0,840,0C800,0,760,0,720,0C680,0,640,0,600,0C560,0,520,0,480,0C440,0,400,0,360,0C320,0,280,0,240,0C200,0,160,0,120,0C80,0,40,0,20,0L0,0Z"></path></svg>