<?xml version="1.0" standalone="no"?><svg xmlns="http://www.w3.org/2000/svg" viewBox="0 0 1440 320"><path fill="#1E40AF" fill-opacity="1" d="M0,192L40,170.7C80,149,160,107,240,128C320,149,400,235,480,229.3C560,224,640,128,720,122.7C800,117,880,203,960,240C1040,277,1120,267,1200,234.7C1280,203,1360,149,1400,122.7L1440,96L1440,320L1400,320C1360,320,1280,320,1200,320C1120,320,1040,320,960,320C880,320,800,320,720,320C640,320,560,320,480,320C400,320,320,320,240,320C160,320,80,320,40,320L0,320Z"></path></svg>